<?xml version="1.0" ?><svg viewBox="0 0 64 64" xmlns="http://www.w3.org/2000/svg"><defs><style>.cls-1{fill:#00ffa7;}.cls-2{fill:#ff5174;}.cls-3{fill:#f1f9ff;}</style></defs><g id="Watermelon"><path class="cls-1" d="M51.74,6.15a2,2,0,0,0-3.1-.38L46.08,8.33c5,5-3.57,10.94-3.57,18,0,14.74-.35,10.73-15.09,10.73-7.08,0-14.09,14-19.1,9l.62-.62L5.45,48.94a2,2,0,0,0-.58,1.46,2,2,0,0,0,.65,1.44A32.82,32.82,0,0,0,60,27.2C60,20.55,54.39,10.52,51.74,6.15Z"/><path class="cls-2" d="M46.08,8.33,8.32,46.07A26.69,26.69,0,0,0,46.08,8.33Z"/><path class="cls-3" d="M44,22.05a2.53,2.53,0,1,1-3.57,3.58c-1-1-2.1-3.69-1.11-4.68S43,21.07,44,22.05Z"/><path class="cls-3" d="M25.63,40.43A2.53,2.53,0,1,1,22.05,44c-1-1-2.09-3.69-1.1-4.68S24.64,39.44,25.63,40.43Z"/><path class="cls-3" d="M34.82,31.24a2.53,2.53,0,0,1-3.58,3.57c-1-1-2.09-3.69-1.1-4.67S33.83,30.25,34.82,31.24Z"/><path class="cls-3" d="M46.89,34a2.53,2.53,0,1,1-3.57,3.58c-1-1-2.09-3.69-1.11-4.68S45.9,33,46.89,34Z"/><path class="cls-3" d="M37.71,43.19a2.53,2.53,0,1,1-3.58,3.58c-1-1-2.09-3.7-1.1-4.68S36.72,42.2,37.71,43.19Z"/></g></svg>